<svg xmlns="http://www.w3.org/2000/svg" viewBox="0 0 120 120">
  <defs>
    <!-- Background gradient -->
    <linearGradient id="bgGrad" x1="0" y1="0" x2="1" y2="1">
      <stop offset="0%" stop-color="#6366f1"/>
      <stop offset="100%" stop-color="#8b5cf6"/>
    </linearGradient>

    <!-- Inner shape gradient -->
    <linearGradient id="innerGrad" x1="0" y1="0" x2="1" y2="1">
      <stop offset="0%" stop-color="rgba(255,255,255,0.95)"/>
      <stop offset="100%" stop-color="rgba(255,255,255,0.7)"/>
    </linearGradient>

    <!-- Accent gradient -->
    <linearGradient id="accentGrad" x1="0" y1="0" x2="1" y2="1">
      <stop offset="0%" stop-color="#ffffff" stop-opacity="0.95"/>
      <stop offset="100%" stop-color="#e5e7ff" stop-opacity="0.7"/>
    </linearGradient>

    <!-- Icon inner stroke gradient -->
    <linearGradient id="toolStrokeGrad" x1="0" y1="0" x2="1" y2="1">
      <stop offset="0%" stop-color="#4f46e5"/>
      <stop offset="100%" stop-color="#a855f7"/>
    </linearGradient>

    <!-- Glow / shadow -->
    <filter id="softShadow" x="-20%" y="-20%" width="140%" height="140%">
      <feDropShadow dx="0" dy="6" stdDeviation="8" flood-color="#312e81" flood-opacity="0.35"/>
    </filter>

    <!-- Subtle inner shadow / highlight -->
    <filter id="innerSoft" x="-10%" y="-10%" width="120%" height="120%">
      <feGaussianBlur in="SourceAlpha" stdDeviation="2" result="blur"/>
      <feOffset dy="1" result="offsetBlur"/>
      <feComposite in="offsetBlur" in2="SourceAlpha" operator="arithmetic" k2="-1" k3="1" result="innerShadow"/>
      <feColorMatrix in="innerShadow" type="matrix"
        values="0 0 0 0 0.09
                0 0 0 0 0.1
                0 0 0 0 0.18
                0 0 0 0.6 0"/>
      <feComposite in="SourceGraphic" in2="innerShadow" operator="over"/>
    </filter>
  </defs>

  <!-- Background rounded square -->
  <rect x="10" y="10" width="100" height="100" rx="26" fill="url(#bgGrad)" filter="url(#softShadow)"/>

  <!-- Inner panel for modern tool surface -->
  <rect x="22" y="22" width="76" height="76" rx="22"
        fill="rgba(255,255,255,0.16)"
        stroke="rgba(255,255,255,0.35)"
        stroke-width="1.2"
        filter="url(#innerSoft)"/>

  <!-- Top highlight strip -->
  <path d="M24 35c0-6 4.8-11 11-11h50c6.2 0 11 5 11 11v3c0 0.8-0.6 1.4-1.4 1.4H25.4C24.6 39.4 24 38.8 24 38z"
        fill="rgba(255,255,255,0.28)"/>

  <!-- Central tool emblem: stylized wrench + circuit node -->
  <!-- Wrench body -->
  <path d="M44 80.5c0 2 1.6 3.5 3.5 3.5h11.5c1.4 0 2.7-0.6 3.6-1.6l15-17.2c0.7-0.8 1.1-1.9 1.1-3
           0-1.1-0.4-2.2-1.1-3l-1.6-1.8c-0.6-0.7-1.6-0.7-2.3-0.1l-4.3 4
           c-1.4 1.3-3.6 1.2-4.9-0.2l-2.1-2.2c-0.7-0.7-1-1.7-0.8-2.6l1-4.2
           c0.3-1.3-0.2-2.7-1.3-3.4l-3.2-2c-1-0.6-2.2-0.7-3.3-0.2l-4 1.8
           c-1 0.4-1.8 1.2-2.2 2.3l-2.8 7.2c-0.4 1-1 1.9-1.8 2.6l-4.5 3.9
           c-1.2 1.1-1.9 2.6-1.9 4.2v10.2z"
        fill="url(#accentGrad)" opacity="0.96"/>

  <!-- Wrench inner cut (negative space) -->
  <path d="M50.2 60.8c0.8-0.8 1.9-1.3 3-1.3 1.2 0 2.3 0.5 3.1 1.3 0.8 0.8 1.3 1.9 1.3 3.1
           0 1.2-0.5 2.3-1.3 3.1-0.8 0.8-1.9 1.3-3.1 1.3-1.1 0-2.2-0.5-3-1.3
           -0.8-0.8-1.3-1.9-1.3-3.1 0-1.2 0.5-2.3 1.3-3.1z"
        fill="#e0e7ff" opacity="0.95"/>

  <!-- Circuit node + connection to suggest "tooling / config" -->
  <circle cx="78" cy="43" r="6" fill="rgba(255,255,255,0.18)" stroke="url(#toolStrokeGrad)" stroke-width="1.6"/>
  <circle cx="78" cy="43" r="2.4" fill="#ffffff" opacity="0.95"/>

  <!-- Connecting line to wrench -->
  <path d="M72 49 L64 57"
        fill="none"
        stroke="url(#toolStrokeGrad)"
        stroke-width="1.8"
        stroke-linecap="round"
        stroke-linejoin="round"
        opacity="0.95"/>

  <!-- Stylized bottom slider / progress bar hinting at "control panel" -->
  <rect x="36" y="84" width="48" height="6.5" rx="3.25"
        fill="rgba(15,23,42,0.14)"/>
  <rect x="38" y="84.8" width="24" height="5" rx="2.5"
        fill="url(#accentGrad)" opacity="0.96"/>

  <!-- Soft inner outline for icon definition -->
  <rect x="13.5" y="13.5" width="93" height="93" rx="24"
        fill="none" stroke="rgba(255,255,255,0.32)" stroke-width="1.2"/>
</svg>